<svg xmlns="http://www.w3.org/2000/svg" xmlns:xlink="http://www.w3.org/1999/xlink" version="1.1" x="0px" y="0px" viewBox="0 0 100 100" enable-background="new 0 0 100 100" xml:space="preserve"><path d="M42.1,40c2,0,3.6-1.6,3.6-3.6c0-2-1.6-3.6-3.6-3.6c-2,0-3.6,1.6-3.6,3.6C38.5,38.3,40.1,40,42.1,40L42.1,40z M62.7,66.1  v-3.7H37.3v3.7H62.7z M50,5C25.1,5,5,25.1,5,50c0,24.9,20.1,45,45,45s45-20.1,45-45C95,25.1,74.9,5,50,5L50,5z M70,34.8H59.4V24.2  L70,34.8z M71.3,76.2c0,0.5-0.4,0.9-0.9,0.9H29.6c-0.5,0-0.9-0.4-0.9-0.9V23.9c0-0.5,0.4-0.9,0.9-0.9h25.4v15.5  c0,0.5,0.4,0.9,0.9,0.9h15.5V76.2z M62.7,49.2v-3.6H37.3v3.6H62.7z M62.7,57.7V54H37.3v3.7H62.7z"></path></svg>